<?xml version="1.0" encoding="utf-8"?>
<!-- Generator: Adobe Illustrator 26.1.0, SVG Export Plug-In . SVG Version: 6.00 Build 0)  -->
<svg version="1.1" id="Слой_1" xmlns="http://www.w3.org/2000/svg" xmlns:xlink="http://www.w3.org/1999/xlink" x="0px" y="0px"
	 viewBox="0 0 2000 2000" style="enable-background:new 0 0 2000 2000;" xml:space="preserve">
<style type="text/css">
	.st0{fill:#FCB8D1;}
	.st1{fill:#FFDFE5;}
	.st2{fill:#FCD1D9;}
	.st3{fill:#FFDFE4;}
</style>
<g>
	<rect y="1.7" class="st0" width="1998.3" height="1998.3"/>
	<path class="st1" d="M1998.3,1.7v1912.9c-30.2,28.7-61,57.1-92.5,85.4H52.4c-17.7-16.7-35.2-33.5-52.4-50.4V1.7H1998.3z"/>
	<path class="st0" d="M1998.3,1.7v1640.7c-116.9,122.7-247.2,242.5-389.2,357.5H346.6C219,1891.9,103.4,1780.5,0,1667.7V1.7H1998.3z
		"/>
	<path class="st1" d="M1998.3,1.7v1324.6c-187.7,238-438.6,468.8-735.3,673.6H690.2c-288-206.2-518.4-432.9-690.2-661.2V1.7h857.8
		C891.3,34.3,919,64.3,940,88.3c25.6,29.4,69.3,30.8,96.9,3.5c24.9-24.6,58.3-56,98.5-90.1H1998.3z"/>
	<path class="st0" d="M1998.3,80.1v941.2c-188.5,338.6-542.5,677.6-993.6,943.5c-17.5,10.3-39,10.2-56.3-0.3
		C489.2,1685.9,171.5,1344.1,0,1019V80.3c19.8-20.5,41.7-39.5,65.5-56.9C76,15.7,86.4,8.5,96.8,1.7h584.2
		c123.4,71.3,218.7,168.9,268.6,226.1c21.4,24.6,58,25.8,81.1,2.9c57.5-56.8,168.8-156.7,305.1-229h577.3
		c21.6,15.5,43,33.3,64.1,53.6c1.5,1.5,3,3.1,4.4,4.7C1987.4,66.7,1992.9,73.4,1998.3,80.1z"/>
	<path class="st2" d="M1025,408.1c-19,18.6-48.9,17.6-66.5-2.4C862.1,296,558.4,3.7,233.9,239.5
		c-388.2,282.2-132.2,1063.1,723.6,1578.2c14.2,8.6,31.8,8.7,46.1,0.3c749-437.9,1171.5-1119.9,800.7-1548.6
		c-1.1-1.3-2.4-2.6-3.6-3.8C1506.2-16.2,1138.4,297.1,1025,408.1z"/>
	<path class="st1" d="M1020,566.2c-15.3,14.4-39.4,13.7-53.6-1.9C888.7,479,644,251.7,382.5,435.1
		C69.7,654.6,276,1261.8,965.6,1662.3c11.5,6.7,25.6,6.7,37.2,0.2c603.5-340.5,944-870.8,645.2-1204.2c-0.9-1-1.9-2-2.9-3
		C1407.7,236.3,1111.3,479.9,1020,566.2z"/>
	<path class="st0" d="M1015.6,660.7c-12.1,11.4-31.1,10.8-42.3-1.5c-61.4-67.4-254.8-247-461.3-102.1
		c-247.2,173.4-84.2,653.1,460.7,969.5c9,5.3,20.3,5.3,29.4,0.2c476.8-269,745.8-688,509.8-951.4c-0.7-0.8-1.5-1.6-2.3-2.4
		C1321.9,400,1087.8,592.5,1015.6,660.7z"/>
	<path class="st2" d="M1010.7,767.8c-8.4,8-21.8,7.5-29.6-1c-42.9-47.1-178-172.6-322.4-71.3C486,816.6,599.9,1151.9,980.6,1373
		c6.3,3.7,14.2,3.7,20.5,0.1c333.2-188,521.2-480.8,356.2-664.9c-0.5-0.6-1.1-1.1-1.6-1.6C1224.7,585.7,1061.1,720.2,1010.7,767.8z"
		/>
	<path class="st3" d="M1008.4,864.5c-6.4,6-16.4,5.6-22.4-0.8c-28.1-30.1-107.8-100.5-192.9-40.8c-105.4,74-34.3,279.7,200.9,413.4
		c205.8-113.7,322.9-293.8,221.3-406.2C1138,757.9,1041.5,833.9,1008.4,864.5z"/>
	<path class="st0" d="M1004.3,961.3c-3.4,3-8.4,2.8-11.6-0.3c-11.3-11.5-38.5-33.1-67.4-12.9c-37.7,26.5-12.3,100.2,71.9,148
		c73.7-40.7,115.6-105.2,79.2-145.4C1050.2,926.1,1017.6,949.6,1004.3,961.3z"/>
</g>
</svg>
