<?xml version="1.0" encoding="utf-8"?>
<!-- Generator: Adobe Illustrator 26.1.0, SVG Export Plug-In . SVG Version: 6.00 Build 0)  -->
<svg version="1.1" id="Слой_1" xmlns="http://www.w3.org/2000/svg" xmlns:xlink="http://www.w3.org/1999/xlink" x="0px" y="0px"
	 viewBox="0 0 2000 2000" style="enable-background:new 0 0 2000 2000;" xml:space="preserve">
<style type="text/css">
	.st0{fill:#A4C6F3;}
	.st1{fill:#93BEF3;}
	.st2{fill:#CADAF4;}
	.st3{fill:#CBDBF5;}
	.st4{fill:#94BFF4;}
	.st5{fill:#A9CAF7;}
	.st6{fill:#97C2F7;}
	.st7{fill:#CFDFF8;}
</style>
<g>
	<rect class="st0" width="2000" height="2000"/>
	<path class="st1" d="M2000,0v1914.6c-30.2,28.7-61.1,57.2-92.5,85.4H52.4c-17.7-16.7-35.2-33.6-52.4-50.4V0H2000z"/>
	<path class="st2" d="M2000,0v1642.2c-117,122.8-247.4,242.7-389.6,357.8H346.9C219.2,1891.8,103.5,1780.4,0,1667.4V0H2000z"/>
	<path class="st1" d="M2000,0v1325.8c-187.9,238.2-438.9,469.2-736,674.2H690.8C402.6,1793.6,171.9,1566.7,0,1338.2V0h858.5
		c33.5,32.6,61.3,62.6,82.3,86.7c25.6,29.4,69.4,30.8,97,3.5c25-24.6,58.3-56.1,98.6-90.2H2000z"/>
	<path class="st0" d="M2000,78.4v942.1c-188.6,338.9-543,678.2-994.5,944.3c-17.5,10.3-39,10.2-56.4-0.3
		C489.6,1685.6,171.7,1343.6,0,1018.2V78.6c19.9-20.5,41.7-39.5,65.6-57C76,14,86.5,6.8,96.9,0h584.7
		c123.5,71.4,218.9,169,268.8,226.3c21.5,24.6,58.1,25.8,81.2,3c57.6-56.9,169-156.8,305.3-229.2h577.8
		c21.6,15.5,43.1,33.3,64.2,53.7c1.5,1.5,3,3.1,4.4,4.7C1989.1,65,1994.6,71.7,2000,78.4z"/>
	<path class="st3" d="M1025.9,406.7c-19,18.6-49,17.6-66.6-2.4C862.8,294.5,558.9,2,234.1,238c-388.6,282.5-132.3,1064,724.2,1579.5
		c14.2,8.6,31.9,8.7,46.2,0.3C1754.1,1379.6,2177.1,697,1806,267.9c-1.1-1.3-2.4-2.6-3.6-3.8C1507.5-17.9,1139.4,295.6,1025.9,406.7
		z"/>
	<path class="st4" d="M1020.9,565c-15.3,14.4-39.5,13.7-53.6-1.9c-77.8-85.4-322.7-312.9-584.4-129.3
		C69.8,653.4,276.2,1261.1,966.4,1662c11.5,6.7,25.7,6.7,37.2,0.2c604-340.8,944.8-871.6,645.8-1205.2c-0.9-1-1.9-2-2.9-3
		C1408.9,234.7,1112.3,478.5,1020.9,565z"/>
	<path class="st5" d="M1016.5,659.6c-12.1,11.4-31.2,10.8-42.4-1.5c-61.5-67.5-255-247.2-461.7-102.2
		c-247.4,173.5-84.3,653.7,461.1,970.4c9.1,5.3,20.3,5.3,29.4,0.2c477.2-269.2,746.5-688.6,510.2-952.2c-0.7-0.8-1.5-1.6-2.3-2.4
		C1323.1,398.7,1088.7,591.3,1016.5,659.6z"/>
	<path class="st3" d="M1011.5,766.8c-8.4,8-21.8,7.6-29.6-1c-43-47.1-178.2-172.8-322.7-71.4c-172.9,121.3-58.9,456.8,322.2,678.1
		c6.3,3.7,14.2,3.7,20.5,0.1c333.5-188.1,521.6-481.2,356.6-665.4c-0.5-0.6-1.1-1.1-1.6-1.6C1225.8,584.4,1062,719.1,1011.5,766.8z"
		/>
	<path class="st6" d="M1009.3,863.5c-6.4,6-16.4,5.6-22.4-0.8c-28.1-30.1-107.9-100.5-193-40.9c-105.5,74-34.4,280,201.1,413.8
		c205.9-113.8,323.2-294,221.5-406.6C1138.9,756.8,1042.4,832.9,1009.3,863.5z"/>
	<path class="st7" d="M1005.2,960.4c-3.4,3-8.4,2.8-11.6-0.3c-11.3-11.5-38.5-33.2-67.4-12.9c-37.8,26.5-12.3,100.2,72,148.1
		c73.7-40.8,115.7-105.3,79.3-145.6C1051.1,925.1,1018.5,948.6,1005.2,960.4z"/>
</g>
</svg>
